<svg xmlns="http://www.w3.org/2000/svg" xmlns:xlink="http://www.w3.org/1999/xlink" width="40" height="40" version="1.1" viewBox="0 0 40 40"><title>ic_allstreams_norm</title><desc>Created with Sketch.</desc><g id="ICONS" fill="none" fill-rule="evenodd" stroke="none" stroke-width="1"><g id="ic_allstreams_norm" fill="#E1D9F2" fill-rule="nonzero"><path id="Rectangle-9-Copy-3" d="M4,10 L5,9 L5,10 L4,10 Z M35,9 L36,10 L35,10 L35,9 Z M35,10 L35,15.9975965 L36,16 L36,9 L4,9 L4,15.9230864 L5,15.9230864 L5,10 L35,10 Z M35,9 L36,10 L35,10 L35,9 Z M5,10 L4,10 L5,9 L5,10 Z M35,15.9975965 L36,16 L36,9 L4,9 L4,15.9230864 L5,15.9230864 L5,10 L35,10 L35,15.9975965 Z"/><path id="Rectangle-9-Copy-4" d="M8,5 L9,4 L9,5 L8,5 Z M30,4 L31,5 L30,5 L30,4 Z M30,5 L30,9.99713366 L31,10 L31,4 L8,4 L8,9.93407408 L9,9.93407408 L9,5 L30,5 Z M30,4 L31,5 L30,5 L30,4 Z M8,5 L9,4 L9,5 L8,5 Z M30,9.99713366 L31,10 L31,4 L8,4 L8,9.93407408 L9,9.93407408 L9,5 L30,5 L30,9.99713366 Z"/><path id="Rectangle-9-Copy" stroke="#E1D9F2" stroke-width=".5" d="M1.5,38.5 L38.5,38.5 L38.5,16.5 L1.5,16.5 L1.5,38.5 Z M0,15 L40,15 L40,40 L0,40 L0,15 Z"/></g></g></svg>