<svg xmlns="http://www.w3.org/2000/svg" xmlns:xlink="http://www.w3.org/1999/xlink" width="40" height="40" version="1.1" viewBox="0 0 40 40"><title>ic_search_unexpanded</title><desc>Created with Sketch.</desc><g id="ICONS" fill="none" fill-rule="evenodd" stroke="none" stroke-width="1"><g id="ic_search_unexpanded"><rect id="Rectangle-3" width="40" height="30" x="0" y="5" fill="#EDEDED" rx="15"/><g id="Group-2" fill="#817F97" fill-rule="nonzero" transform="translate(9.000000, 9.000000)"><polygon id="Path-2" points="12 13.203 20.799 22 22 20.797 13.201 12"/><path id="Oval-2" d="M8,16 C3.581722,16 0,12.418278 0,8 C0,3.581722 3.581722,0 8,0 C12.418278,0 16,3.581722 16,8 C16,12.418278 12.418278,16 8,16 Z M8,14.5964912 C11.6431415,14.5964912 14.5964912,11.6431415 14.5964912,8 C14.5964912,4.35685849 11.6431415,1.40350877 8,1.40350877 C4.35685849,1.40350877 1.40350877,4.35685849 1.40350877,8 C1.40350877,11.6431415 4.35685849,14.5964912 8,14.5964912 Z"/></g></g></g></svg>