<svg xmlns="http://www.w3.org/2000/svg" xmlns:xlink="http://www.w3.org/1999/xlink" width="40" height="40" version="1.1" viewBox="0 0 40 40"><title>ic_scheduled</title><desc>Created with Sketch.</desc><g id="ICONS" fill="none" fill-rule="evenodd" stroke="none" stroke-width="1"><g id="ic_scheduled" fill="#817F97" fill-rule="nonzero"><polygon id="Shape" points="19.75 9 18.25 9 18.25 21.063 24.505 26.563 25.495 25.437 19.75 20.385"/><polygon id="Shape" points="2.632 21 5.48 21 5.48 19 2.632 19"/><polygon id="Shape" points="35.186 21 38.034 21 38.034 19 35.186 19"/><polygon id="Shape" points="20 38 20 34 18 34 18 38"/><polygon id="Shape" points="20 5.731 20 1 18 1 18 5.731"/><path id="Shape" d="M20,40 C31.0399205,40 40,31.2757121 40,20.5 C40,9.72428789 31.0399205,1 20,1 L20,3 C29.9471117,3 38,10.8409702 38,20.5 C38,30.1590298 29.9471117,38 20,38 L20,40 Z"/><path id="Shape" d="M9.20142141,7.07251203 L7.81258336,5.63337032 L4.33661693,8.98783806 L4.22736114,9.11234019 C1.79744173,12.3940872 0.469098108,16.3258536 0.469098108,20.4493444 C0.469098108,31.2271592 9.50880867,39.9493444 20.6425784,39.9493444 L20.6425784,37.9493444 C10.5976929,37.9493444 2.46909811,30.1062715 2.46909811,20.4493444 C2.46909811,16.7870498 3.63921388,13.296273 5.78608581,10.3684682 L9.20142141,7.07251203 Z"/><polygon id="Shape" points="7 14 9 14 9 7 8 6 1 6 1 8 7 8"/></g></g></svg>