<svg xmlns="http://www.w3.org/2000/svg" xmlns:xlink="http://www.w3.org/1999/xlink" width="40" height="40" version="1.1" viewBox="0 0 40 40"><title>ic_search</title><desc>Created with Sketch.</desc><g id="ICONS" fill="none" fill-rule="evenodd" stroke="none" stroke-width="1"><g id="ic_search" fill="#817F97" fill-rule="nonzero"><polygon id="Path-2" points="22.692 24.805 38.221 40.323 40.342 38.201 24.812 22.683"/><path id="Oval-2" d="M15,29.25 C7.12994232,29.25 0.75,22.8700577 0.75,15 C0.75,7.12994232 7.12994232,0.75 15,0.75 C22.8700577,0.75 29.25,7.12994232 29.25,15 C29.25,22.8700577 22.8700577,29.25 15,29.25 Z M15,26.75 C21.4893458,26.75 26.75,21.4893458 26.75,15 C26.75,8.51065419 21.4893458,3.25 15,3.25 C8.51065419,3.25 3.25,8.51065419 3.25,15 C3.25,21.4893458 8.51065419,26.75 15,26.75 Z"/></g></g></svg>