<svg xmlns="http://www.w3.org/2000/svg" xmlns:xlink="http://www.w3.org/1999/xlink" style="width:16px;height:16px" version="1.1" viewBox="0 0 16 16"><desc>Created with Sketch.</desc><g id="Symbols" fill="none" fill-rule="evenodd" stroke="none" stroke-width="1"><g id="Group-2" fill="#000"><polygon id="Shape" fill-rule="nonzero" points="9.015 5.503 9.015 4 8 4 8 5.503"/><polygon id="Shape-Copy" fill-rule="nonzero" points="9 15.053 9 8 8 8 8 15.053" transform="translate(8.500000, 11.526545) scale(-1, 1) translate(-8.500000, -11.526545)"/><rect id="Rectangle" width="5" height="1" x="6" y="15"/><path id="Path-2-Copy" fill-rule="nonzero" d="M1,6 L1,8 L8.5543666,8 L9.5543666,7 L8.5543666,6 L1,6 Z M0,5 L8.96858016,5 L10.9685802,7 L8.96858016,9 L0,9 L0,5 Z" transform="translate(5.484290, 7.000000) rotate(-180.000000) translate(-5.484290, -7.000000)"/><path id="Path-2" fill-rule="nonzero" d="M6,1 L6,3 L13.5543666,3 L14.5543666,2 L13.5543666,1 L6,1 Z M5,2.22044605e-16 L13.9685802,2.22044605e-16 L15.9685802,2 L13.9685802,4 L5,4 L5,2.22044605e-16 Z"/></g></g></svg>