<svg xmlns="http://www.w3.org/2000/svg" xmlns:xlink="http://www.w3.org/1999/xlink" width="40" height="40" version="1.1" viewBox="0 0 40 40"><title>ic_schedule_norm</title><desc>Created with Sketch.</desc><g id="ICONS" fill="none" fill-rule="evenodd" stroke="none" stroke-width="1"><g id="ic_schedule_norm" fill="#E1D9F2" fill-rule="nonzero"><path id="Shape" stroke="#E1D9F2" stroke-width=".5" d="M38.0413521,38.3582126 L1.75,38.3582126 L1.75,4.94196994 L7.70491731,4.94196994 L7.70491731,3.44196994 L1,3.44196994 C0.585786438,3.44196994 0.25,3.77775638 0.25,4.19196994 L0.25,39.1082126 C0.25,39.5224261 0.585786438,39.8582126 1,39.8582126 L38.7913521,39.8582126 C39.2055657,39.8582126 39.5413521,39.5224261 39.5413521,39.1082126 L39.5413521,4.19196994 C39.5413521,3.77775638 39.2055657,3.44196994 38.7913521,3.44196994 L32.0864348,3.44196994 L32.0864348,4.94196994 L38.0413521,4.94196994 L38.0413521,38.3582126 Z"/><path id="Rectangle-path" d="M9.65107594,6.88393988 L13.0971174,6.88393988 L13.0971174,1.5 L9.65107594,1.5 L9.65107594,6.88393988 Z M9.15107594,0.5 L13.5971174,0.5 C13.8732597,0.5 14.0971174,0.723857625 14.0971174,1 L14.0971174,7.38393988 C14.0971174,7.66008226 13.8732597,7.88393988 13.5971174,7.88393988 L9.15107594,7.88393988 C8.87493357,7.88393988 8.65107594,7.66008226 8.65107594,7.38393988 L8.65107594,1 C8.65107594,0.723857625 8.87493357,0.5 9.15107594,0.5 Z"/><path id="Rectangle-path" d="M26.8475465,6.88393988 L30.2935879,6.88393988 L30.2935879,1.5 L26.8475465,1.5 L26.8475465,6.88393988 Z M26.3475465,0.5 L30.7935879,0.5 C31.0697303,0.5 31.2935879,0.723857625 31.2935879,1 L31.2935879,7.38393988 C31.2935879,7.66008226 31.0697303,7.88393988 30.7935879,7.88393988 L26.3475465,7.88393988 C26.0714041,7.88393988 25.8475465,7.66008226 25.8475465,7.38393988 L25.8475465,1 C25.8475465,0.723857625 26.0714041,0.5 26.3475465,0.5 Z"/><polygon id="Shape" points="1 11 38 11 38 10 1 10"/><polygon id="Shape" points="26.309 3.25 13.906 3.25 13.906 4.75 26.309 4.75"/></g></g></svg>